Normalized EMG Linear Envelopes
nRows=114
nColumns=4

endheader
time	 med_gas_r	  soleus_r	 tib_ant_r	
2.71976	  0.002288	  0.004879	  0.001759	
2.79133	  0.002579	  0.004911	  0.001646	
2.8629	  0.002704	  0.004926	  0.001550	
2.93448	  0.002667	  0.004906	  0.001475	
3.00605	  0.002575	  0.004898	  0.001429	
3.07762	  0.002506	  0.004965	  0.001432	
3.14919	  0.002486	  0.005053	  0.001478	
3.22077	  0.002500	  0.005046	  0.001530	
3.29234	  0.002528	  0.004951	  0.001553	
3.36391	  0.002569	  0.004888	  0.001548	
3.43548	  0.002602	  0.004898	  0.001539	
3.50706	  0.002615	  0.004933	  0.001545	
3.57863	  0.002627	  0.004978	  0.001548	
3.6502	  0.002627	  0.005043	  0.001519	
3.72177	  0.002586	  0.005071	  0.001474	
3.79335	  0.002527	  0.004978	  0.001474	
3.86492	  0.002492	  0.004793	  0.001546	
3.93649	  0.002500	  0.004635	  0.001633	
4.00806	  0.002542	  0.004585	  0.001665	
4.07964	  0.002600	  0.004635	  0.001627	
4.15121	  0.002694	  0.004779	  0.001567	
4.22278	  0.002922	  0.005094	  0.001548	
4.29435	  0.003389	  0.005656	  0.001590	
4.36593	  0.003899	  0.006220	  0.001637	
4.4375	  0.003492	  0.005767	  0.001556	
4.50907	  0.000307	  0.002326	  0.001168	
4.58065	 -0.007320	 -0.005946	  0.000382	
4.65222	 -0.017420	 -0.017035	 -0.000471	
4.72379	 -0.019107	 -0.019175	 -0.000174	
4.79536	  0.011381	  0.013465	  0.003608	
4.86694	  0.102135	  0.111872	  0.013147	
4.93851	  0.253624	  0.276006	  0.027395	
5.01008	  0.416081	  0.447681	  0.040657	
5.08165	  0.523802	  0.556954	  0.047161	
5.15323	  0.553655	  0.593152	  0.046404	
5.2248	  0.540063	  0.594569	  0.042668	
5.29637	  0.538224	  0.590362	  0.040624	
5.36794	  0.571957	  0.588311	  0.041937	
5.43952	  0.618369	  0.594540	  0.045181	
5.51109	  0.648983	  0.615529	  0.048339	
5.58266	  0.667493	  0.646969	  0.050824	
5.65423	  0.691146	  0.668914	  0.053070	
5.72581	  0.720031	  0.663037	  0.055055	
5.79738	  0.743802	  0.639975	  0.056115	
5.86895	  0.756963	  0.628491	  0.055729	
5.94052	  0.757561	  0.634976	  0.053866	
6.0121	  0.744895	  0.638680	  0.051503	
6.08367	  0.724801	  0.625111	  0.050731	
6.15524	  0.711572	  0.602207	  0.052650	
6.22681	  0.716285	  0.587916	  0.055752	
6.29839	  0.737390	  0.596480	  0.057822	
6.36996	  0.763780	  0.624987	  0.058135	
6.44153	  0.777356	  0.645503	  0.057301	
6.5131	  0.762326	  0.632620	  0.056641	
6.58468	  0.724793	  0.596934	  0.057220	
6.65625	  0.690294	  0.566479	  0.058279	
6.72782	  0.674929	  0.552050	  0.058015	
6.7994	  0.673066	  0.548151	  0.055924	
6.87097	  0.675240	  0.545542	  0.052759	
6.94254	  0.681974	  0.537803	  0.049401	
7.01411	  0.693701	  0.527992	  0.046912	
7.08569	  0.701847	  0.526074	  0.046219	
7.15726	  0.702363	  0.539521	  0.047204	
7.22883	  0.706545	  0.566096	  0.048880	
7.3004	  0.725602	  0.590401	  0.050266	
7.37198	  0.749219	  0.594282	  0.050847	
7.44355	  0.750774	  0.574747	  0.050882	
7.51512	  0.720254	  0.545027	  0.050555	
7.58669	  0.680164	  0.521020	  0.048814	
7.65827	  0.655759	  0.511147	  0.045136	
7.72984	  0.643167	  0.512305	  0.041306	
7.80141	  0.622564	  0.513447	  0.039720	
7.87298	  0.595605	  0.512012	  0.041296	
7.94456	  0.591120	  0.522148	  0.044824	
8.01613	  0.629335	  0.551764	  0.048080	
8.0877	  0.698343	  0.583549	  0.050254	
8.15927	  0.766472	  0.597393	  0.051967	
8.23085	  0.802420	  0.595049	  0.053496	
8.30242	  0.792654	  0.586266	  0.054483	
8.37399	  0.751417	  0.569660	  0.054225	
8.44556	  0.709433	  0.544064	  0.052328	
8.51714	  0.690580	  0.523336	  0.049614	
8.58871	  0.698714	  0.523372	  0.047361	
8.66028	  0.719667	  0.544707	  0.046214	
8.73185	  0.734133	  0.577810	  0.046560	
8.80343	  0.735935	  0.612895	  0.048660	
8.875	  0.734629	  0.638710	  0.051721	
8.94657	  0.736207	  0.646138	  0.054003	
9.01815	  0.734766	  0.635879	  0.054550	
9.08972	  0.725872	  0.615727	  0.053908	
9.16129	  0.713424	  0.596928	  0.052972	
9.23286	  0.705469	  0.590918	  0.052481	
9.30444	  0.709586	  0.601534	  0.053650	
9.37601	  0.723693	  0.626328	  0.057398	
9.44758	  0.733609	  0.662279	  0.062530	
9.51915	  0.728754	  0.701475	  0.066169	
9.59073	  0.713721	  0.724208	  0.065865	
9.6623	  0.696291	  0.705566	  0.060719	
9.73387	  0.675589	  0.633945	  0.051221	
9.80544	  0.653628	  0.515167	  0.038628	
9.87702	  0.640688	  0.363931	  0.025016	
9.94859	  0.637915	  0.209542	  0.013849	
10.0202	  0.633104	  0.092143	  0.009593	
10.0917	  0.617136	  0.031675	  0.016413	
10.1633	  0.591695	  0.015786	  0.034808	
10.2349	  0.564992	  0.020496	  0.056258	
10.3065	  0.549010	  0.028234	  0.065411	
10.378	  0.554776	  0.031697	  0.054548	
10.4496	  0.582546	  0.031046	  0.032353	
10.5212	  0.619297	  0.029006	  0.013236	
10.5927	  0.647109	  0.027611	  0.003574	
10.6643	  0.656219	  0.027484	  0.001277	
10.7359	  0.653536	  0.028395	  0.002159	
10.8075	  0.650842	  0.029859	  0.003471	
